<?xml version="1.0" standalone="no"?>
<!DOCTYPE svg PUBLIC "-//W3C//DTD SVG 20010904//EN"
 "http://www.w3.org/TR/2001/REC-SVG-20010904/DTD/svg10.dtd">
<svg version="1.0" xmlns="http://www.w3.org/2000/svg"
 width="512.000000pt" height="512.000000pt" viewBox="0 0 512.000000 512.000000"
 preserveAspectRatio="xMidYMid meet">

<g transform="translate(0.000000,512.000000) scale(0.100000,-0.100000)"
fill="#000000" stroke="none">
<path d="M4505 4717 c-33 -12 -3968 -2072 -4090 -2142 -205 -118 -188 -413 29
-494 82 -30 1253 -431 1260 -431 4 0 210 190 459 423 1526 1427 1834 1714
1847 1722 8 5 -3 -13 -26 -40 -285 -347 -1825 -2258 -1821 -2261 3 -3 418
-147 923 -321 881 -303 922 -317 994 -317 58 0 84 4 116 21 48 26 110 92 130
139 16 39 524 3376 524 3445 0 59 -23 126 -59 170 -63 76 -195 116 -286 86z"/>
<path d="M1882 983 c3 -360 4 -380 24 -424 50 -108 135 -164 249 -164 56 0 80
5 118 25 64 34 670 572 654 581 -13 7 -1036 359 -1044 359 -2 0 -3 -170 -1
-377z"/>
</g>
</svg>
